<svg width="287" height="155" viewBox="0 0 287 155" fill="none" xmlns="http://www.w3.org/2000/svg">
<rect opacity="0.24" x="253.534" y="52.8075" width="33.0059" height="8.55709" rx="4.27855" fill="#075E54"/>
<rect opacity="0.24" x="230.667" y="78.4789" width="33.0059" height="17.1142" rx="5.1774" fill="#075E54"/>
<circle cx="233.112" cy="41.8046" r="6.11221" fill="#075E54"/>
<rect opacity="0.24" y="56.948" width="31.8819" height="8.26568" rx="4.13284" fill="#075E54"/>
<rect opacity="0.24" x="43.6891" y="35.6934" width="31.8819" height="16.5314" rx="5.1774" fill="#075E54"/>
<circle cx="41.3284" cy="99.457" r="3.54243" fill="#075E54"/>
<path d="M184.593 107.981V16.8125C184.593 2.56739 160.219 2.72139 156.693 2.49039L132.856 2.49039C129.33 2.72139 104.956 2.56739 104.956 16.8125V43.4546" stroke="#EEF8F6" stroke-width="2.3463" stroke-miterlimit="10" stroke-linecap="round"/>
<ellipse cx="144.41" cy="79.526" rx="64.8" ry="64.9943" fill="#075E54"/>
<path d="M113.232 119.686V130.235C113.247 131.433 113.497 132.617 113.967 133.718C114.438 134.819 115.119 135.817 115.973 136.653C116.828 137.49 117.837 138.149 118.945 138.594C120.053 139.038 121.237 139.259 122.43 139.244H166.732C167.925 139.259 169.109 139.038 170.217 138.594C171.324 138.149 172.334 137.49 173.188 136.653C174.042 135.817 174.724 134.819 175.195 133.718C175.665 132.617 175.915 131.433 175.93 130.235V28.2092C175.915 27.0109 175.665 25.8274 175.195 24.7261C174.724 23.6248 174.042 22.6274 173.188 21.7908C172.334 20.9542 171.324 20.2948 170.217 19.8503C169.109 19.4058 167.925 19.1849 166.732 19.2002L122.43 19.2002C121.237 19.1849 120.053 19.4058 118.945 19.8503C117.837 20.2948 116.828 20.9542 115.973 21.7908C115.119 22.6274 114.438 23.6248 113.967 24.7261C113.497 25.8274 113.247 27.0109 113.232 28.2092V106.134" fill="#94E9D5"/>
<path d="M113.232 119.686V130.235C113.247 131.433 113.497 132.617 113.967 133.718C114.438 134.819 115.119 135.817 115.973 136.653C116.828 137.49 117.837 138.149 118.945 138.594C120.053 139.038 121.237 139.259 122.43 139.244H166.732C167.925 139.259 169.109 139.038 170.217 138.594C171.324 138.149 172.334 137.49 173.188 136.653C174.042 135.817 174.724 134.819 175.195 133.718C175.665 132.617 175.915 131.433 175.93 130.235V28.2092C175.915 27.0109 175.665 25.8274 175.195 24.7261C174.724 23.6248 174.042 22.6274 173.188 21.7908C172.334 20.9542 171.324 20.2948 170.217 19.8503C169.109 19.4058 167.925 19.1849 166.732 19.2002L122.43 19.2002C121.237 19.1849 120.053 19.4058 118.945 19.8503C117.837 20.2948 116.828 20.9542 115.973 21.7908C115.119 22.6274 114.438 23.6248 113.967 24.7261C113.497 25.8274 113.247 27.0109 113.232 28.2092V106.134" stroke="#EEF8F6" stroke-width="2.3463" stroke-miterlimit="10" stroke-linecap="round"/>
<path d="M161.598 151.64C156.999 151.948 151.404 152.102 144.813 151.948C105.339 152.641 105.033 145.095 105.033 138.858V58.7778" stroke="#73C3AA" stroke-width="2.3463" stroke-miterlimit="10" stroke-linecap="round"/>
<path d="M168.957 150.872C184.44 148.639 184.593 143.403 184.593 138.783V107.213" stroke="#73C3AA" stroke-width="2.3463" stroke-miterlimit="10" stroke-linecap="round"/>
<path d="M135.539 11.7311C141.498 10.0035 147.822 10.0035 153.781 11.7311" stroke="white" stroke-width="2.3463" stroke-miterlimit="10" stroke-linecap="round"/>
<path d="M113.311 112.602V113.911" stroke="#EEF8F6" stroke-width="2.3463" stroke-miterlimit="10" stroke-linecap="round"/>
<path d="M105.033 49.3837V50.6927" stroke="#73C3AA" stroke-width="2.3463" stroke-miterlimit="10" stroke-linecap="round"/>
<path d="M184.593 107.981V16.8125C184.593 2.56739 160.219 2.72139 156.693 2.49039L132.856 2.49039C129.33 2.72139 104.956 2.56739 104.956 16.8125V43.4546" stroke="#040B09" stroke-width="3" stroke-miterlimit="10" stroke-linecap="round"/>
<path d="M113.232 119.686V130.235C113.247 131.433 113.497 132.617 113.967 133.718C114.438 134.819 115.119 135.817 115.973 136.653C116.828 137.49 117.837 138.149 118.945 138.594C120.053 139.038 121.237 139.259 122.43 139.244H166.732C167.925 139.259 169.109 139.038 170.217 138.594C171.324 138.149 172.334 137.49 173.188 136.653C174.042 135.817 174.724 134.819 175.195 133.718C175.665 132.617 175.915 131.433 175.93 130.235V28.2092C175.915 27.0109 175.665 25.8274 175.195 24.7261C174.724 23.6248 174.042 22.6274 173.188 21.7908C172.334 20.9542 171.324 20.2948 170.217 19.8503C169.109 19.4058 167.925 19.1849 166.732 19.2002L122.43 19.2002C121.237 19.1849 120.053 19.4058 118.945 19.8503C117.837 20.2948 116.828 20.9542 115.973 21.7908C115.119 22.6274 114.438 23.6248 113.967 24.7261C113.497 25.8274 113.247 27.0109 113.232 28.2092V106.134" fill="#E7E6ED"/>
<path d="M113.232 119.686V130.235C113.247 131.433 113.497 132.617 113.967 133.718C114.438 134.819 115.119 135.817 115.973 136.653C116.828 137.49 117.837 138.149 118.945 138.594C120.053 139.038 121.237 139.259 122.43 139.244H166.732C167.925 139.259 169.109 139.038 170.217 138.594C171.324 138.149 172.334 137.49 173.188 136.653C174.042 135.817 174.724 134.819 175.195 133.718C175.665 132.617 175.915 131.433 175.93 130.235V28.2092C175.915 27.0109 175.665 25.8274 175.195 24.7261C174.724 23.6248 174.042 22.6274 173.188 21.7908C172.334 20.9542 171.324 20.2948 170.217 19.8503C169.109 19.4058 167.925 19.1849 166.732 19.2002L122.43 19.2002C121.237 19.1849 120.053 19.4058 118.945 19.8503C117.837 20.2948 116.828 20.9542 115.973 21.7908C115.119 22.6274 114.438 23.6248 113.967 24.7261C113.497 25.8274 113.247 27.0109 113.232 28.2092V106.134" stroke="#040B09" stroke-width="3" stroke-miterlimit="10" stroke-linecap="round"/>
<path d="M140.4 56.674C141.903 58.1832 145.927 60.2962 150 56.674" stroke="#040B09" stroke-width="1.95657" stroke-linecap="round" stroke-linejoin="round"/>
<path d="M161.598 151.64C156.999 151.948 151.404 152.102 144.813 151.948C105.339 152.641 105.033 145.095 105.033 138.858V58.7778" stroke="#040B09" stroke-width="3" stroke-miterlimit="10" stroke-linecap="round"/>
<path d="M168.957 150.872C184.44 148.639 184.593 143.403 184.593 138.783V107.213" stroke="#040B09" stroke-width="3" stroke-miterlimit="10" stroke-linecap="round"/>
<path d="M135.539 11.7311C141.498 10.0035 147.822 10.0035 153.781 11.7311" stroke="#040B09" stroke-width="3" stroke-miterlimit="10" stroke-linecap="round"/>
<path d="M113.311 112.602V113.911" stroke="#040B09" stroke-width="3" stroke-miterlimit="10" stroke-linecap="round"/>
<path d="M105.033 49.3837V50.6927" stroke="#040B09" stroke-width="3" stroke-miterlimit="10" stroke-linecap="round"/>
<path d="M173.178 70.3625C172.798 70.8896 172.416 71.498 172.031 72.1678C166.182 82.3399 156.438 86.3654 145.496 82.1493C141.787 80.7206 138.186 79.4224 135.427 78.7012" stroke="#1C1C1C" stroke-width="4" stroke-linecap="round" stroke-linejoin="round"/>
<g clip-path="url(#clip0_1_81)">
<path d="M153.811 40.4726H166.089C167.736 40.4745 169.316 41.1306 170.481 42.2971C171.646 43.4636 172.301 45.0451 172.303 46.6948V51.4435C172.303 52.298 172.127 53.1433 171.786 53.9268C171.446 54.7103 170.948 55.4151 170.323 55.9974C169.699 56.5797 168.961 57.027 168.156 57.3114C167.352 57.5957 166.497 57.7111 165.646 57.6502L158.38 57.1306C155.931 56.9473 153.64 55.8457 151.966 54.0457C150.293 52.2457 149.358 49.8799 149.35 47.4205V44.9386C149.352 43.7544 149.822 42.6192 150.659 41.782C151.495 40.9447 152.629 40.4738 153.811 40.4726ZM160.889 44.5268L167.678 52.5784C167.815 52.741 168.011 52.8424 168.223 52.8603C168.435 52.8782 168.645 52.8111 168.808 52.6738C168.97 52.5365 169.071 52.3401 169.089 52.128C169.107 51.9159 169.04 51.7054 168.903 51.5427L162.114 43.4916C162.046 43.4111 161.963 43.3447 161.869 43.2963C161.776 43.248 161.674 43.2185 161.569 43.2096C161.464 43.2008 161.358 43.2127 161.258 43.2447C161.158 43.2767 161.065 43.3282 160.984 43.3962C160.904 43.4642 160.838 43.5474 160.789 43.641C160.741 43.7346 160.712 43.8369 160.703 43.9419C160.694 44.0469 160.706 44.1527 160.738 44.2531C160.77 44.3535 160.821 44.4467 160.889 44.5272V44.5268Z" fill="#33303E"/>
<path d="M123.062 40.4726H135.339C136.522 40.4739 137.656 40.9449 138.492 41.7821C139.328 42.6193 139.798 43.7545 139.8 44.9385V47.4207C139.792 49.8801 138.857 52.246 137.184 54.046C135.51 55.8459 133.22 56.9475 130.77 57.1308L123.504 57.6505C122.653 57.7113 121.799 57.596 120.994 57.3116C120.189 57.0273 119.451 56.58 118.827 55.9977C118.202 55.4154 117.704 54.7105 117.364 53.927C117.023 53.1436 116.847 52.2982 116.847 51.4437V46.695C116.849 45.0452 117.505 43.4635 118.67 42.297C119.835 41.1304 121.414 40.4743 123.062 40.4726ZM137.315 48.2194C137.477 48.0821 137.579 47.8858 137.596 47.6737C137.614 47.4616 137.547 47.2511 137.41 47.0884L134.016 43.0621C133.948 42.9801 133.865 42.9123 133.771 42.8626C133.678 42.813 133.575 42.7825 133.469 42.7729C133.364 42.7633 133.257 42.7748 133.156 42.8067C133.055 42.8386 132.961 42.8904 132.88 42.9589C132.799 43.0274 132.732 43.1114 132.684 43.2059C132.635 43.3004 132.606 43.4036 132.598 43.5095C132.59 43.6154 132.602 43.7219 132.635 43.8229C132.669 43.9238 132.721 44.0171 132.791 44.0974L136.185 48.1238C136.322 48.2865 136.518 48.3879 136.73 48.4058C136.942 48.4238 137.152 48.3567 137.315 48.2194ZM128.413 44.3512L135.202 52.4027C135.27 52.4832 135.353 52.5496 135.447 52.598C135.54 52.6464 135.642 52.6758 135.747 52.6847C135.852 52.6935 135.958 52.6816 136.058 52.6496C136.158 52.6176 136.251 52.5662 136.332 52.4982C136.412 52.4302 136.478 52.347 136.527 52.2533C136.575 52.1597 136.605 52.0574 136.613 51.9524C136.622 51.8474 136.61 51.7416 136.578 51.6412C136.546 51.5408 136.495 51.4476 136.427 51.3671L129.638 43.3156C129.57 43.235 129.487 43.1687 129.394 43.1203C129.3 43.0719 129.198 43.0425 129.093 43.0336C128.988 43.0247 128.883 43.0366 128.783 43.0686C128.682 43.1006 128.589 43.1521 128.509 43.2201C128.428 43.2881 128.362 43.3713 128.314 43.465C128.265 43.5586 128.236 43.6609 128.227 43.7659C128.218 43.8709 128.23 43.9767 128.262 44.0771C128.294 44.1775 128.346 44.2706 128.413 44.3512H128.413Z" fill="#33303E"/>
<path d="M111.161 46.0521H116.045V48.0521H111.161C110.865 48.0521 110.581 47.9467 110.371 47.7592C110.162 47.5717 110.045 47.3173 110.045 47.0521C110.045 46.7869 110.162 46.5325 110.371 46.345C110.581 46.1575 110.865 46.0521 111.161 46.0521Z" fill="#33303E"/>
<path d="M178.8 47.0556C178.8 47.3208 178.682 47.5752 178.473 47.7627C178.263 47.9502 177.98 48.0556 177.684 48.0556H172.8V46.0556H177.684C177.98 46.0556 178.263 46.161 178.473 46.3485C178.682 46.536 178.8 46.7904 178.8 47.0556Z" fill="#33303E"/>
</g>
<path d="M115.849 70.3625C116.229 70.8896 116.611 71.498 116.996 72.1678C122.845 82.3399 132.589 86.3654 143.532 82.1493C147.24 80.7206 150.842 79.4224 153.6 78.7012" stroke="#040B09" stroke-width="4" stroke-linecap="round" stroke-linejoin="round"/>
<defs>
<clipPath id="clip0_1_81">
<rect width="69.6" height="21.6279" fill="white" transform="matrix(-1 0 0 1 178.8 36.047)"/>
</clipPath>
</defs>
</svg>
